<svg xmlns="http://www.w3.org/2000/svg" xmlns:xlink="http://www.w3.org/1999/xlink" width="300" zoomAndPan="magnify" viewBox="0 0 224.87999 97.5" height="130" preserveAspectRatio="xMidYMid meet" version="1.0"><defs><g/></defs><g fill="#ffffff" fill-opacity="1"><g transform="translate(15.129402, 62.305485)"><g><path d="M 14.859375 0.40625 C 12.335938 0.40625 10.078125 -0.171875 8.078125 -1.328125 C 6.085938 -2.484375 4.519531 -4.144531 3.375 -6.3125 C 2.226562 -8.476562 1.65625 -11.085938 1.65625 -14.140625 C 1.65625 -17.203125 2.226562 -19.816406 3.375 -21.984375 C 4.53125 -24.160156 6.109375 -25.828125 8.109375 -26.984375 C 10.117188 -28.140625 12.367188 -28.71875 14.859375 -28.71875 C 16.484375 -28.71875 17.992188 -28.488281 19.390625 -28.03125 C 20.796875 -27.570312 22.035156 -26.90625 23.109375 -26.03125 C 24.179688 -25.15625 25.0625 -24.09375 25.75 -22.84375 C 26.445312 -21.59375 26.90625 -20.164062 27.125 -18.5625 L 21.25 -18.5625 C 21.101562 -19.351562 20.847656 -20.054688 20.484375 -20.671875 C 20.117188 -21.296875 19.660156 -21.820312 19.109375 -22.25 C 18.566406 -22.6875 17.945312 -23.015625 17.25 -23.234375 C 16.5625 -23.453125 15.800781 -23.5625 14.96875 -23.5625 C 13.476562 -23.5625 12.171875 -23.1875 11.046875 -22.4375 C 9.929688 -21.695312 9.066406 -20.625 8.453125 -19.21875 C 7.847656 -17.820312 7.546875 -16.128906 7.546875 -14.140625 C 7.546875 -12.128906 7.851562 -10.421875 8.46875 -9.015625 C 9.082031 -7.617188 9.945312 -6.554688 11.0625 -5.828125 C 12.175781 -5.109375 13.476562 -4.75 14.96875 -4.75 C 15.78125 -4.75 16.535156 -4.863281 17.234375 -5.09375 C 17.929688 -5.320312 18.554688 -5.644531 19.109375 -6.0625 C 19.660156 -6.488281 20.117188 -7.015625 20.484375 -7.640625 C 20.847656 -8.265625 21.109375 -8.96875 21.265625 -9.75 L 27.140625 -9.75 C 26.960938 -8.363281 26.550781 -7.0625 25.90625 -5.84375 C 25.269531 -4.632812 24.421875 -3.554688 23.359375 -2.609375 C 22.304688 -1.671875 21.066406 -0.929688 19.640625 -0.390625 C 18.210938 0.140625 16.617188 0.40625 14.859375 0.40625 Z M 14.859375 0.40625 "/></g></g></g><g fill="#ffffff" fill-opacity="1"><g transform="translate(43.804534, 62.305485)"><g><path d="M 2.453125 0 L 2.453125 -28.3125 L 8.265625 -28.3125 L 8.265625 -4.859375 L 20.640625 -4.859375 L 20.640625 0 Z M 2.453125 0 "/></g></g></g><g fill="#ffffff" fill-opacity="1"><g transform="translate(65.733694, 62.305485)"><g><path d="M 14.125 0.40625 C 11.78125 0.40625 9.734375 -0.0234375 7.984375 -0.890625 C 6.234375 -1.753906 4.875 -2.960938 3.90625 -4.515625 C 2.9375 -6.066406 2.453125 -7.867188 2.453125 -9.921875 L 2.453125 -28.3125 L 8.234375 -28.3125 L 8.234375 -10.390625 C 8.234375 -9.296875 8.472656 -8.316406 8.953125 -7.453125 C 9.441406 -6.597656 10.128906 -5.925781 11.015625 -5.4375 C 11.910156 -4.957031 12.945312 -4.71875 14.125 -4.71875 C 15.3125 -4.71875 16.34375 -4.957031 17.21875 -5.4375 C 18.101562 -5.925781 18.789062 -6.597656 19.28125 -7.453125 C 19.769531 -8.316406 20.015625 -9.296875 20.015625 -10.390625 L 20.015625 -28.3125 L 25.8125 -28.3125 L 25.8125 -9.921875 C 25.8125 -7.867188 25.328125 -6.066406 24.359375 -4.515625 C 23.390625 -2.960938 22.023438 -1.753906 20.265625 -0.890625 C 18.515625 -0.0234375 16.46875 0.40625 14.125 0.40625 Z M 14.125 0.40625 "/></g></g></g><g fill="#ffffff" fill-opacity="1"><g transform="translate(93.971764, 62.305485)"><g><path d="M 12.921875 0.421875 C 10.617188 0.421875 8.625 0.0664062 6.9375 -0.640625 C 5.25 -1.347656 3.9375 -2.394531 3 -3.78125 C 2.070312 -5.175781 1.59375 -6.878906 1.5625 -8.890625 L 7.203125 -8.890625 C 7.253906 -7.929688 7.523438 -7.117188 8.015625 -6.453125 C 8.515625 -5.785156 9.179688 -5.285156 10.015625 -4.953125 C 10.847656 -4.617188 11.804688 -4.453125 12.890625 -4.453125 C 13.921875 -4.453125 14.828125 -4.601562 15.609375 -4.90625 C 16.390625 -5.207031 16.992188 -5.628906 17.421875 -6.171875 C 17.859375 -6.722656 18.078125 -7.351562 18.078125 -8.0625 C 18.078125 -8.707031 17.890625 -9.25 17.515625 -9.6875 C 17.140625 -10.132812 16.585938 -10.515625 15.859375 -10.828125 C 15.128906 -11.148438 14.226562 -11.429688 13.15625 -11.671875 L 10.078125 -12.421875 C 7.585938 -13.003906 5.660156 -13.925781 4.296875 -15.1875 C 2.941406 -16.445312 2.265625 -18.109375 2.265625 -20.171875 C 2.265625 -21.878906 2.722656 -23.367188 3.640625 -24.640625 C 4.554688 -25.921875 5.816406 -26.921875 7.421875 -27.640625 C 9.023438 -28.359375 10.863281 -28.71875 12.9375 -28.71875 C 15.039062 -28.71875 16.875 -28.351562 18.4375 -27.625 C 20.007812 -26.90625 21.226562 -25.898438 22.09375 -24.609375 C 22.96875 -23.316406 23.425781 -21.816406 23.46875 -20.109375 L 17.890625 -20.109375 C 17.785156 -21.285156 17.289062 -22.203125 16.40625 -22.859375 C 15.53125 -23.515625 14.363281 -23.84375 12.90625 -23.84375 C 11.925781 -23.84375 11.082031 -23.703125 10.375 -23.421875 C 9.664062 -23.140625 9.125 -22.75 8.75 -22.25 C 8.375 -21.75 8.1875 -21.175781 8.1875 -20.53125 C 8.1875 -19.851562 8.382812 -19.289062 8.78125 -18.84375 C 9.1875 -18.394531 9.738281 -18.019531 10.4375 -17.71875 C 11.144531 -17.425781 11.9375 -17.175781 12.8125 -16.96875 L 15.390625 -16.34375 C 16.648438 -16.0625 17.800781 -15.6875 18.84375 -15.21875 C 19.882812 -14.757812 20.785156 -14.203125 21.546875 -13.546875 C 22.304688 -12.890625 22.890625 -12.109375 23.296875 -11.203125 C 23.703125 -10.304688 23.90625 -9.285156 23.90625 -8.140625 C 23.90625 -6.398438 23.46875 -4.882812 22.59375 -3.59375 C 21.71875 -2.3125 20.460938 -1.320312 18.828125 -0.625 C 17.191406 0.0703125 15.222656 0.421875 12.921875 0.421875 Z M 12.921875 0.421875 "/></g></g></g><g fill="#ffffff" fill-opacity="1"><g transform="translate(119.435433, 62.305485)"><g><path d="M 1.296875 -23.453125 L 1.296875 -28.3125 L 24.40625 -28.3125 L 24.40625 -23.453125 L 15.78125 -23.453125 L 15.78125 0 L 9.953125 0 L 9.953125 -23.453125 Z M 1.296875 -23.453125 "/></g></g></g><g fill="#ffffff" fill-opacity="1"><g transform="translate(145.146138, 62.305485)"><g><path d="M 2.453125 0 L 2.453125 -28.3125 L 21.71875 -28.3125 L 21.71875 -23.453125 L 8.265625 -23.453125 L 8.265625 -16.6875 L 20.703125 -16.6875 L 20.703125 -11.921875 L 8.265625 -11.921875 L 8.265625 -4.859375 L 21.734375 -4.859375 L 21.734375 0 Z M 2.453125 0 "/></g></g></g><g fill="#ffffff" fill-opacity="1"><g transform="translate(168.785545, 62.305485)"><g><path d="M 2.453125 0 L 2.453125 -28.3125 L 13.5625 -28.3125 C 15.707031 -28.3125 17.539062 -27.929688 19.0625 -27.171875 C 20.582031 -26.410156 21.742188 -25.335938 22.546875 -23.953125 C 23.347656 -22.578125 23.75 -20.953125 23.75 -19.078125 C 23.75 -17.210938 23.335938 -15.601562 22.515625 -14.25 C 21.691406 -12.894531 20.503906 -11.851562 18.953125 -11.125 C 17.410156 -10.40625 15.550781 -10.046875 13.375 -10.046875 L 5.90625 -10.046875 L 5.90625 -14.75 L 12.671875 -14.75 C 13.816406 -14.75 14.769531 -14.914062 15.53125 -15.25 C 16.289062 -15.582031 16.863281 -16.070312 17.25 -16.71875 C 17.632812 -17.363281 17.828125 -18.148438 17.828125 -19.078125 C 17.828125 -20.023438 17.632812 -20.828125 17.25 -21.484375 C 16.863281 -22.140625 16.289062 -22.640625 15.53125 -22.984375 C 14.769531 -23.335938 13.8125 -23.515625 12.65625 -23.515625 L 8.265625 -23.515625 L 8.265625 0 Z M 18.28125 0 L 11.484375 -12.859375 L 17.75 -12.859375 L 24.6875 0 Z M 18.28125 0 "/></g></g></g><g fill="#f84f08" fill-opacity="1"><g transform="translate(194.292643, 62.305485)"><g><path d="M 6.125 0.359375 C 5.195312 0.359375 4.414062 0.046875 3.78125 -0.578125 C 3.144531 -1.203125 2.828125 -1.976562 2.828125 -2.90625 C 2.828125 -3.820312 3.144531 -4.59375 3.78125 -5.21875 C 4.414062 -5.84375 5.195312 -6.15625 6.125 -6.15625 C 7.03125 -6.15625 7.800781 -5.84375 8.4375 -5.21875 C 9.070312 -4.59375 9.390625 -3.820312 9.390625 -2.90625 C 9.390625 -1.976562 9.070312 -1.203125 8.4375 -0.578125 C 7.800781 0.046875 7.03125 0.359375 6.125 0.359375 Z M 6.125 0.359375 "/></g></g></g><g fill="#13293d" fill-opacity="1"><g transform="translate(206.522889, 62.305485)"><g/></g></g></svg>