<svg xmlns="http://www.w3.org/2000/svg" xmlns:xlink="http://www.w3.org/1999/xlink" width="500" zoomAndPan="magnify" viewBox="0 0 375 195.000001" height="260" preserveAspectRatio="xMidYMid meet" version="1.0"><defs><g/><clipPath id="6352fbfead"><rect x="0" width="313" y="0" height="74"/></clipPath></defs><g transform="matrix(1, 0, 0, 1, 36, 60)"><g clip-path="url(#6352fbfead)"><g fill="#13293d" fill-opacity="1"><g transform="translate(0.572499, 57.701185)"><g><path d="M 23.046875 0.625 C 19.140625 0.625 15.640625 -0.269531 12.546875 -2.0625 C 9.453125 -3.851562 7.015625 -6.425781 5.234375 -9.78125 C 3.453125 -13.144531 2.5625 -17.191406 2.5625 -21.921875 C 2.5625 -26.679688 3.453125 -30.742188 5.234375 -34.109375 C 7.023438 -37.484375 9.472656 -40.0625 12.578125 -41.84375 C 15.679688 -43.632812 19.171875 -44.53125 23.046875 -44.53125 C 25.554688 -44.53125 27.894531 -44.175781 30.0625 -43.46875 C 32.238281 -42.757812 34.160156 -41.726562 35.828125 -40.375 C 37.503906 -39.019531 38.878906 -37.367188 39.953125 -35.421875 C 41.023438 -33.484375 41.726562 -31.273438 42.0625 -28.796875 L 32.953125 -28.796875 C 32.734375 -30.015625 32.335938 -31.101562 31.765625 -32.0625 C 31.203125 -33.03125 30.492188 -33.847656 29.640625 -34.515625 C 28.796875 -35.179688 27.832031 -35.6875 26.75 -36.03125 C 25.675781 -36.375 24.5 -36.546875 23.21875 -36.546875 C 20.90625 -36.546875 18.878906 -35.960938 17.140625 -34.796875 C 15.398438 -33.640625 14.054688 -31.972656 13.109375 -29.796875 C 12.171875 -27.628906 11.703125 -25.003906 11.703125 -21.921875 C 11.703125 -18.796875 12.175781 -16.148438 13.125 -13.984375 C 14.082031 -11.816406 15.425781 -10.171875 17.15625 -9.046875 C 18.882812 -7.929688 20.90625 -7.375 23.21875 -7.375 C 24.476562 -7.375 25.648438 -7.546875 26.734375 -7.890625 C 27.816406 -8.242188 28.785156 -8.75 29.640625 -9.40625 C 30.492188 -10.070312 31.203125 -10.882812 31.765625 -11.84375 C 32.335938 -12.8125 32.742188 -13.90625 32.984375 -15.125 L 42.09375 -15.125 C 41.8125 -12.976562 41.175781 -10.960938 40.1875 -9.078125 C 39.195312 -7.191406 37.878906 -5.515625 36.234375 -4.046875 C 34.597656 -2.585938 32.671875 -1.441406 30.453125 -0.609375 C 28.242188 0.210938 25.773438 0.625 23.046875 0.625 Z M 23.046875 0.625 "/></g></g></g><g fill="#13293d" fill-opacity="1"><g transform="translate(45.04491, 57.701185)"><g><path d="M 3.796875 0 L 3.796875 -43.90625 L 12.828125 -43.90625 L 12.828125 -7.546875 L 32 -7.546875 L 32 0 Z M 3.796875 0 "/></g></g></g><g fill="#13293d" fill-opacity="1"><g transform="translate(79.054958, 57.701185)"><g><path d="M 21.890625 0.625 C 18.265625 0.625 15.09375 -0.0390625 12.375 -1.375 C 9.664062 -2.71875 7.554688 -4.59375 6.046875 -7 C 4.546875 -9.40625 3.796875 -12.203125 3.796875 -15.390625 L 3.796875 -43.90625 L 12.765625 -43.90625 L 12.765625 -16.125 C 12.765625 -14.414062 13.140625 -12.894531 13.890625 -11.5625 C 14.648438 -10.238281 15.71875 -9.195312 17.09375 -8.4375 C 18.46875 -7.6875 20.066406 -7.3125 21.890625 -7.3125 C 23.742188 -7.3125 25.351562 -7.6875 26.71875 -8.4375 C 28.082031 -9.195312 29.140625 -10.238281 29.890625 -11.5625 C 30.648438 -12.894531 31.03125 -14.414062 31.03125 -16.125 L 31.03125 -43.90625 L 40.03125 -43.90625 L 40.03125 -15.390625 C 40.03125 -12.203125 39.273438 -9.40625 37.765625 -7 C 36.265625 -4.59375 34.148438 -2.71875 31.421875 -1.375 C 28.703125 -0.0390625 25.523438 0.625 21.890625 0.625 Z M 21.890625 0.625 "/></g></g></g><g fill="#13293d" fill-opacity="1"><g transform="translate(122.849526, 57.701185)"><g><path d="M 20.046875 0.640625 C 16.460938 0.640625 13.363281 0.09375 10.75 -1 C 8.144531 -2.101562 6.117188 -3.726562 4.671875 -5.875 C 3.222656 -8.03125 2.472656 -10.671875 2.421875 -13.796875 L 11.171875 -13.796875 C 11.242188 -12.296875 11.664062 -11.03125 12.4375 -10 C 13.207031 -8.96875 14.238281 -8.191406 15.53125 -7.671875 C 16.832031 -7.148438 18.316406 -6.890625 19.984375 -6.890625 C 21.597656 -6.890625 23.007812 -7.125 24.21875 -7.59375 C 25.425781 -8.070312 26.363281 -8.734375 27.03125 -9.578125 C 27.695312 -10.421875 28.03125 -11.394531 28.03125 -12.5 C 28.03125 -13.5 27.738281 -14.34375 27.15625 -15.03125 C 26.582031 -15.71875 25.726562 -16.304688 24.59375 -16.796875 C 23.46875 -17.285156 22.066406 -17.71875 20.390625 -18.09375 L 15.625 -19.28125 C 11.769531 -20.175781 8.785156 -21.601562 6.671875 -23.5625 C 4.554688 -25.519531 3.5 -28.085938 3.5 -31.265625 C 3.5 -33.921875 4.210938 -36.238281 5.640625 -38.21875 C 7.066406 -40.207031 9.019531 -41.753906 11.5 -42.859375 C 13.988281 -43.972656 16.847656 -44.53125 20.078125 -44.53125 C 23.335938 -44.53125 26.179688 -43.96875 28.609375 -42.84375 C 31.035156 -41.726562 32.925781 -40.164062 34.28125 -38.15625 C 35.632812 -36.15625 36.335938 -33.832031 36.390625 -31.1875 L 27.734375 -31.1875 C 27.578125 -33.007812 26.816406 -34.429688 25.453125 -35.453125 C 24.085938 -36.472656 22.273438 -36.984375 20.015625 -36.984375 C 18.503906 -36.984375 17.195312 -36.757812 16.09375 -36.3125 C 14.988281 -35.875 14.144531 -35.265625 13.5625 -34.484375 C 12.988281 -33.710938 12.703125 -32.828125 12.703125 -31.828125 C 12.703125 -30.785156 13.007812 -29.914062 13.625 -29.21875 C 14.25 -28.519531 15.101562 -27.941406 16.1875 -27.484375 C 17.28125 -27.023438 18.503906 -26.632812 19.859375 -26.3125 L 23.875 -25.34375 C 25.820312 -24.914062 27.601562 -24.34375 29.21875 -23.625 C 30.84375 -22.90625 32.242188 -22.035156 33.421875 -21.015625 C 34.597656 -19.992188 35.5 -18.785156 36.125 -17.390625 C 36.757812 -15.992188 37.078125 -14.398438 37.078125 -12.609375 C 37.078125 -9.921875 36.398438 -7.578125 35.046875 -5.578125 C 33.691406 -3.585938 31.742188 -2.050781 29.203125 -0.96875 C 26.671875 0.101562 23.617188 0.640625 20.046875 0.640625 Z M 20.046875 0.640625 "/></g></g></g><g fill="#13293d" fill-opacity="1"><g transform="translate(162.341263, 57.701185)"><g><path d="M 2 -36.375 L 2 -43.90625 L 37.84375 -43.90625 L 37.84375 -36.375 L 24.46875 -36.375 L 24.46875 0 L 15.4375 0 L 15.4375 -36.375 Z M 2 -36.375 "/></g></g></g><g fill="#13293d" fill-opacity="1"><g transform="translate(202.216129, 57.701185)"><g><path d="M 3.796875 0 L 3.796875 -43.90625 L 33.6875 -43.90625 L 33.6875 -36.375 L 12.828125 -36.375 L 12.828125 -25.875 L 32.09375 -25.875 L 32.09375 -18.484375 L 12.828125 -18.484375 L 12.828125 -7.546875 L 33.71875 -7.546875 L 33.71875 0 Z M 3.796875 0 "/></g></g></g><g fill="#13293d" fill-opacity="1"><g transform="translate(238.878607, 57.701185)"><g><path d="M 3.796875 0 L 3.796875 -43.90625 L 21.046875 -43.90625 C 24.367188 -43.90625 27.207031 -43.316406 29.5625 -42.140625 C 31.914062 -40.960938 33.71875 -39.300781 34.96875 -37.15625 C 36.21875 -35.019531 36.84375 -32.5 36.84375 -29.59375 C 36.84375 -26.695312 36.203125 -24.195312 34.921875 -22.09375 C 33.648438 -20 31.8125 -18.390625 29.40625 -17.265625 C 27.007812 -16.148438 24.125 -15.59375 20.75 -15.59375 L 9.171875 -15.59375 L 9.171875 -22.875 L 19.65625 -22.875 C 21.425781 -22.875 22.898438 -23.132812 24.078125 -23.65625 C 25.253906 -24.175781 26.140625 -24.9375 26.734375 -25.9375 C 27.335938 -26.9375 27.640625 -28.15625 27.640625 -29.59375 C 27.640625 -31.0625 27.335938 -32.300781 26.734375 -33.3125 C 26.140625 -34.332031 25.253906 -35.109375 24.078125 -35.640625 C 22.898438 -36.179688 21.414062 -36.453125 19.625 -36.453125 L 12.828125 -36.453125 L 12.828125 0 Z M 28.359375 0 L 17.796875 -19.953125 L 27.53125 -19.953125 L 38.28125 0 Z M 28.359375 0 "/></g></g></g><g fill="#f84f08" fill-opacity="1"><g transform="translate(278.447533, 57.701185)"><g><path d="M 9.484375 0.5625 C 8.054688 0.5625 6.847656 0.078125 5.859375 -0.890625 C 4.878906 -1.867188 4.390625 -3.078125 4.390625 -4.515625 C 4.390625 -5.921875 4.878906 -7.109375 5.859375 -8.078125 C 6.847656 -9.054688 8.054688 -9.546875 9.484375 -9.546875 C 10.898438 -9.546875 12.097656 -9.054688 13.078125 -8.078125 C 14.066406 -7.109375 14.5625 -5.921875 14.5625 -4.515625 C 14.5625 -3.078125 14.066406 -1.867188 13.078125 -0.890625 C 12.097656 0.078125 10.898438 0.5625 9.484375 0.5625 Z M 9.484375 0.5625 "/></g></g></g><g fill="#13293d" fill-opacity="1"><g transform="translate(297.407799, 57.701185)"><g/></g></g></g></g></svg>