<svg xmlns="http://www.w3.org/2000/svg" xmlns:xlink="http://www.w3.org/1999/xlink" width="500" zoomAndPan="magnify" viewBox="0 0 375 374.999991" height="500" preserveAspectRatio="xMidYMid meet" version="1.0"><defs><g/><clipPath id="fb495818d3"><rect x="0" width="338" y="0" height="333"/></clipPath></defs><g transform="matrix(1, 0, 0, 1, 37, 35)"><g clip-path="url(#fb495818d3)"><g fill="#13293d" fill-opacity="1"><g transform="translate(0.500002, 264.084525)"><g><path d="M 104.859375 2.8125 C 87.066406 2.8125 71.128906 -1.253906 57.046875 -9.390625 C 42.972656 -17.523438 31.890625 -29.234375 23.796875 -44.515625 C 15.710938 -59.804688 11.671875 -78.222656 11.671875 -99.765625 C 11.671875 -121.398438 15.738281 -139.882812 23.875 -155.21875 C 32.007812 -170.550781 43.132812 -182.28125 57.25 -190.40625 C 71.375 -198.539062 87.242188 -202.609375 104.859375 -202.609375 C 116.304688 -202.609375 126.96875 -201 136.84375 -197.78125 C 146.71875 -194.570312 155.453125 -189.878906 163.046875 -183.703125 C 170.648438 -177.535156 176.890625 -170.023438 181.765625 -161.171875 C 186.640625 -152.328125 189.835938 -142.273438 191.359375 -131.015625 L 149.921875 -131.015625 C 148.929688 -136.554688 147.140625 -141.515625 144.546875 -145.890625 C 141.960938 -150.273438 138.742188 -153.984375 134.890625 -157.015625 C 131.046875 -160.054688 126.664062 -162.359375 121.75 -163.921875 C 116.832031 -165.492188 111.472656 -166.28125 105.671875 -166.28125 C 95.117188 -166.28125 85.882812 -163.640625 77.96875 -158.359375 C 70.0625 -153.085938 63.960938 -145.507812 59.671875 -135.625 C 55.378906 -125.75 53.234375 -113.796875 53.234375 -99.765625 C 53.234375 -85.546875 55.398438 -73.5 59.734375 -63.625 C 64.078125 -53.75 70.179688 -46.265625 78.046875 -41.171875 C 85.910156 -36.078125 95.117188 -33.53125 105.671875 -33.53125 C 111.390625 -33.53125 116.707031 -34.332031 121.625 -35.9375 C 126.539062 -37.539062 130.941406 -39.835938 134.828125 -42.828125 C 138.722656 -45.828125 141.960938 -49.515625 144.546875 -53.890625 C 147.140625 -58.273438 148.972656 -63.242188 150.046875 -68.796875 L 191.484375 -68.796875 C 190.234375 -59.046875 187.347656 -49.878906 182.828125 -41.296875 C 178.316406 -32.710938 172.328125 -25.09375 164.859375 -18.4375 C 157.398438 -11.78125 148.640625 -6.570312 138.578125 -2.8125 C 128.523438 0.9375 117.285156 2.8125 104.859375 2.8125 Z M 104.859375 2.8125 "/></g></g></g><g fill="#f84f08" fill-opacity="1"><g transform="translate(202.867569, 264.084525)"><g><path d="M 25.078125 -62.359375 L 22.125 -199.796875 L 65.171875 -199.796875 L 61.953125 -62.359375 Z M 43.578125 2.546875 C 36.785156 2.546875 31.175781 0.398438 26.75 -3.890625 C 22.320312 -8.179688 20.109375 -13.632812 20.109375 -20.25 C 20.109375 -26.863281 22.320312 -32.289062 26.75 -36.53125 C 31.175781 -40.78125 36.785156 -42.90625 43.578125 -42.90625 C 50.460938 -42.90625 56.117188 -40.78125 60.546875 -36.53125 C 64.972656 -32.289062 67.1875 -26.863281 67.1875 -20.25 C 67.1875 -13.632812 64.972656 -8.179688 60.546875 -3.890625 C 56.117188 0.398438 50.460938 2.546875 43.578125 2.546875 Z M 43.578125 2.546875 "/></g></g></g><g fill="#13293d" fill-opacity="1"><g transform="translate(290.180421, 264.084525)"><g/></g></g></g></g></svg>